<svg xmlns="http://www.w3.org/2000/svg" width="325.999" height="195.809" viewBox="0 0 325.999 195.809">
  <g id="logo2" transform="translate(-22.395 -104.438)">
    <g id="Group_63" data-name="Group 63">
      <path id="Path_209" data-name="Path 209" d="M187.233,292.889v3.329a3.492,3.492,0,0,1-.13,1.06,1.672,1.672,0,0,1-.48.717,4.458,4.458,0,0,1-.894.617,14.137,14.137,0,0,1-3.033,1.243,12.2,12.2,0,0,1-3.175.392,10.331,10.331,0,0,1-3.648-.617,7.67,7.67,0,0,1-2.808-1.788A7.9,7.9,0,0,1,171.283,295a10.617,10.617,0,0,1-.622-3.732,10.891,10.891,0,0,1,.6-3.707,7.615,7.615,0,0,1,1.776-2.855,7.813,7.813,0,0,1,2.855-1.8,10.96,10.96,0,0,1,3.814-.621,9.471,9.471,0,0,1,3.1.468,6.8,6.8,0,0,1,2.191,1.179,5.28,5.28,0,0,1,1.268,1.5,3.061,3.061,0,0,1,.426,1.41,1.507,1.507,0,0,1-.491,1.131,1.647,1.647,0,0,1-1.179.469,1.6,1.6,0,0,1-.729-.178,1.654,1.654,0,0,1-.586-.5,13.926,13.926,0,0,0-1.1-1.54,3.539,3.539,0,0,0-1.214-.876,4.633,4.633,0,0,0-1.948-.355,5.406,5.406,0,0,0-2.18.42,4.511,4.511,0,0,0-1.641,1.221,5.512,5.512,0,0,0-1.043,1.96,8.621,8.621,0,0,0-.361,2.571,7.043,7.043,0,0,0,1.4,4.7,4.862,4.862,0,0,0,3.915,1.647,7.99,7.99,0,0,0,2.292-.32,11.662,11.662,0,0,0,2.174-.912v-2.819h-2.725a2.994,2.994,0,0,1-1.487-.3,1.074,1.074,0,0,1-.5-1.008,1.233,1.233,0,0,1,.421-.959,1.641,1.641,0,0,1,1.143-.379h3.992a5.1,5.1,0,0,1,1.244.13,1.4,1.4,0,0,1,.823.581A2.327,2.327,0,0,1,187.233,292.889Z" fill="#83b240"/>
      <path id="Path_210" data-name="Path 210" d="M200.165,292.521h-1.232v5.58a2.324,2.324,0,0,1-.485,1.623,1.65,1.65,0,0,1-1.267.521,1.618,1.618,0,0,1-1.3-.545,2.409,2.409,0,0,1-.462-1.6V284.738a1.846,1.846,0,0,1,2.155-2.156h5.721a17.372,17.372,0,0,1,2.025.1,5.1,5.1,0,0,1,1.517.408,4.418,4.418,0,0,1,1.445.984,4.294,4.294,0,0,1,.953,1.486,4.933,4.933,0,0,1,.326,1.8,4.338,4.338,0,0,1-1.1,3.1,6.3,6.3,0,0,1-3.323,1.646,6.421,6.421,0,0,1,1.789,1.469,15.032,15.032,0,0,1,1.522,2.066,15.294,15.294,0,0,1,1.042,1.979,3.908,3.908,0,0,1,.373,1.215,1.233,1.233,0,0,1-.219.681,1.526,1.526,0,0,1-.6.533,1.888,1.888,0,0,1-.876.2,1.709,1.709,0,0,1-.995-.279,2.659,2.659,0,0,1-.693-.7q-.289-.424-.787-1.256l-1.41-2.345a13.053,13.053,0,0,0-1.356-1.967,3.349,3.349,0,0,0-1.214-.924A4.211,4.211,0,0,0,200.165,292.521Zm2.013-7.3h-3.246V290h3.151a8.778,8.778,0,0,0,2.132-.219,2.5,2.5,0,0,0,1.321-.746,2.146,2.146,0,0,0,.456-1.451,2.248,2.248,0,0,0-.367-1.273,2.22,2.22,0,0,0-1.019-.823A7.314,7.314,0,0,0,202.178,285.225Z" fill="#83b240"/>
      <path id="Path_211" data-name="Path 211" d="M225.379,282.287a9.267,9.267,0,0,1,4.638,1.1,7.111,7.111,0,0,1,2.932,3.115,10.625,10.625,0,0,1,.995,4.744,11.6,11.6,0,0,1-.545,3.66,7.911,7.911,0,0,1-1.635,2.855,7.147,7.147,0,0,1-2.677,1.848,10.539,10.539,0,0,1-7.285-.017,7.236,7.236,0,0,1-2.689-1.854,7.92,7.92,0,0,1-1.629-2.879,11.627,11.627,0,0,1-.551-3.637,11.227,11.227,0,0,1,.574-3.672,7.883,7.883,0,0,1,1.665-2.844,7.211,7.211,0,0,1,2.653-1.8A9.589,9.589,0,0,1,225.379,282.287Zm5,8.932a8.16,8.16,0,0,0-.616-3.3A4.6,4.6,0,0,0,228,285.8a4.845,4.845,0,0,0-2.624-.717,4.76,4.76,0,0,0-1.949.4,4.288,4.288,0,0,0-1.54,1.155,5.516,5.516,0,0,0-1.019,1.937,8.78,8.78,0,0,0-.373,2.647,9.009,9.009,0,0,0,.373,2.678,5.5,5.5,0,0,0,1.055,1.984,4.443,4.443,0,0,0,1.563,1.178,4.94,4.94,0,0,0,4.419-.284,4.67,4.67,0,0,0,1.8-2.085A8.057,8.057,0,0,0,230.378,291.219Z" fill="#83b240"/>
      <path id="Path_212" data-name="Path 212" d="M241.829,292.771V284.42a2.332,2.332,0,0,1,.479-1.6,1.619,1.619,0,0,1,1.262-.533,1.658,1.658,0,0,1,1.3.533,2.325,2.325,0,0,1,.48,1.6v8.54a7.8,7.8,0,0,0,.325,2.435,2.822,2.822,0,0,0,1.155,1.516,4.237,4.237,0,0,0,2.322.539,3.478,3.478,0,0,0,2.914-1.1,5.37,5.37,0,0,0,.853-3.322v-8.611a2.339,2.339,0,0,1,.474-1.605,1.618,1.618,0,0,1,1.268-.527,1.674,1.674,0,0,1,1.285.527,2.284,2.284,0,0,1,.492,1.605v8.351a12.371,12.371,0,0,1-.4,3.4,5.256,5.256,0,0,1-1.5,2.394,5.807,5.807,0,0,1-2.2,1.279,9.628,9.628,0,0,1-2.938.4,12.085,12.085,0,0,1-3.447-.434,5.505,5.505,0,0,1-2.357-1.338,5.408,5.408,0,0,1-1.338-2.322A11.812,11.812,0,0,1,241.829,292.771Z" fill="#83b240"/>
      <path id="Path_213" data-name="Path 213" d="M271.83,293.186h-3.222V298.1a2.3,2.3,0,0,1-.5,1.6,1.753,1.753,0,0,1-2.535.006,2.29,2.29,0,0,1-.485-1.582V284.74a2.192,2.192,0,0,1,.533-1.659,2.427,2.427,0,0,1,1.693-.5h4.514a11.847,11.847,0,0,1,3.08.308,4.573,4.573,0,0,1,1.842.984,4.418,4.418,0,0,1,1.179,1.682,5.91,5.91,0,0,1,.4,2.238,4.943,4.943,0,0,1-1.635,4.021A7.434,7.434,0,0,1,271.83,293.186Zm-.853-7.961h-2.369v5.307h2.369a7.065,7.065,0,0,0,2.078-.26,2.419,2.419,0,0,0,1.273-.854,2.546,2.546,0,0,0,.438-1.552,2.633,2.633,0,0,0-.675-1.872Q273.333,285.224,270.977,285.225Z" fill="#83b240"/>
      <path id="Path_214" data-name="Path 214" d="M300.488,284.42v12.639h7.131a1.888,1.888,0,0,1,1.31.415,1.349,1.349,0,0,1,.456,1.042,1.317,1.317,0,0,1-.45,1.037,1.937,1.937,0,0,1-1.315.4h-8.493a2.25,2.25,0,0,1-1.652-.51,2.274,2.274,0,0,1-.5-1.646V284.42a2.332,2.332,0,0,1,.479-1.6,1.617,1.617,0,0,1,1.262-.533,1.676,1.676,0,0,1,1.285.527A2.29,2.29,0,0,1,300.488,284.42Z" fill="#83b240"/>
      <path id="Path_215" data-name="Path 215" d="M324.791,285.485h-3.838V298.1a2.319,2.319,0,0,1-.486,1.617,1.629,1.629,0,0,1-1.256.527,1.654,1.654,0,0,1-1.273-.533,2.311,2.311,0,0,1-.491-1.611V285.485h-3.838a1.941,1.941,0,0,1-1.339-.4,1.344,1.344,0,0,1-.438-1.048,1.327,1.327,0,0,1,.456-1.065,1.969,1.969,0,0,1,1.321-.392h11.183a1.965,1.965,0,0,1,1.356.4,1.354,1.354,0,0,1,.444,1.054,1.327,1.327,0,0,1-.45,1.048A1.991,1.991,0,0,1,324.791,285.485Z" fill="#83b240"/>
      <path id="Path_216" data-name="Path 216" d="M335.708,282.583h4.584a12.365,12.365,0,0,1,3.068.331,5.654,5.654,0,0,1,2.321,1.244q2.713,2.324,2.713,7.061a13.9,13.9,0,0,1-.272,2.855,8.436,8.436,0,0,1-.841,2.327,7.219,7.219,0,0,1-1.457,1.854,6.035,6.035,0,0,1-1.528,1.006,6.81,6.81,0,0,1-1.782.533,13.423,13.423,0,0,1-2.15.154H335.78a2.871,2.871,0,0,1-1.445-.29,1.352,1.352,0,0,1-.634-.817,5.183,5.183,0,0,1-.148-1.368V284.739a1.847,1.847,0,0,1,2.155-2.156Zm1.362,2.784v11.787h2.665c.584,0,1.043-.017,1.374-.049a4.23,4.23,0,0,0,1.031-.236,2.82,2.82,0,0,0,.924-.533q1.766-1.491,1.765-5.141a7.587,7.587,0,0,0-.775-3.85,3.453,3.453,0,0,0-1.913-1.629,9.445,9.445,0,0,0-2.749-.35H337.07Z" fill="#83b240"/>
    </g>
    <g id="Group_64" data-name="Group 64">
      <path id="Path_217" data-name="Path 217" d="M334.223,250.1a15.331,15.331,0,0,0-6.479-2.634,18.862,18.862,0,0,0-8.393.475c-3.832,1.25-5.534,3.945-5.1,7.939.3,2.739,2.9,4.959,6.354,5.414,4.954.652,9.932.209,14.9.314,2.83.06,2.853.01,2.856-2.824.009-5.935-.012-11.871-.009-17.808a15.886,15.886,0,0,0-.4-3.53c-1.225-5.375-4.886-8.338-10.732-8.466-5.477-.12-10.958-.073-16.438-.03-1.107.008-1.524-.246-1.469-1.426.1-2.051.05-4.109.016-6.164-.013-.7.189-.97.923-.965,6.346.045,12.7-.106,19.038.137,5.078.194,9.776,1.746,13.415,5.576a16.567,16.567,0,0,1,4.4,10.179c.6,6.423.189,12.868.27,19.3.057,4.521-.007,9.043.028,13.563.006.811-.188,1.129-1.056,1.115-8.444-.127-16.895.235-25.335-.218a20.429,20.429,0,0,1-9.109-2.624c-5.3-3.012-7.143-7.783-6.885-13.584.37-8.369,6.285-12.334,13.3-13.882a30.135,30.135,0,0,1,14.854.751c.719.2,1.082.43,1.066,1.254C334.193,244.564,334.223,247.166,334.223,250.1Z" fill="#415225" fill-rule="evenodd"/>
      <path id="Path_218" data-name="Path 218" d="M198.385,250.133c-3.683-2.669-7.567-3.133-11.6-2.82-2.7.211-5.292.893-7.019,3.15a6.576,6.576,0,0,0,3.709,10.546,20.64,20.64,0,0,0,5.265.609c4.246-.011,8.493-.024,12.739.011.812.007,1.134-.186,1.121-1.056-.1-6.938.2-13.883-.155-20.815-.346-6.749-4.367-10.637-11.137-10.782-5.478-.116-10.959-.064-16.438-.026-.993.008-1.36-.2-1.315-1.266.09-2.1.061-4.2.01-6.3-.019-.784.227-1,1-.991,6.209.045,12.421-.053,18.627.1a20.474,20.474,0,0,1,10.638,3.072,15.769,15.769,0,0,1,7.555,13.494c.261,10.725.115,21.459.163,32.188,0,.782-.246,1.026-1.02,1.017-8.4-.113-16.8.229-25.2-.207a20.227,20.227,0,0,1-9.945-3.07,12.976,12.976,0,0,1-6.131-10.576c-.758-9.781,5.154-14.7,13.43-16.471a29.982,29.982,0,0,1,14.713.779c.589.17,1,.3,1,1.025C198.372,244.432,198.385,247.119,198.385,250.133Z" fill="#415225" fill-rule="evenodd"/>
      <path id="Path_219" data-name="Path 219" d="M114.906,245.37c0,7.806-.021,15.612.023,23.419.007,1.11-.253,1.487-1.426,1.465-7.072-.139-14.152.244-21.217-.217-4.562-.3-9.02-1.025-12.83-3.97a13.8,13.8,0,0,1-5.3-9.621c-.966-7.229-.4-14.49-.528-21.735-.077-4.383.011-8.766-.03-13.148-.008-.885.216-1.184,1.135-1.156,2.189.065,4.385.082,6.572-.006,1.068-.043,1.281.328,1.277,1.319-.025,9.313,0,18.624,0,27.938a16.95,16.95,0,0,0,1.09,6.012,8.764,8.764,0,0,0,8.019,5.823c4.444.363,8.94.1,13.413.151.944.011.855-.538.854-1.149q-.012-5.408,0-10.819c0-9.269.029-18.536-.034-27.8-.009-1.258.355-1.529,1.523-1.471,1.959.1,3.928.1,5.887,0,1.215-.059,1.623.236,1.611,1.551C114.871,229.758,114.906,237.564,114.906,245.37Z" fill="#415225" fill-rule="evenodd"/>
      <path id="Path_220" data-name="Path 220" d="M22.429,245.234c0-7.764.035-15.527-.034-23.29-.012-1.315.4-1.563,1.609-1.55,6.529.072,13.062.016,19.591.1a27.8,27.8,0,0,1,11.311,2.233,13.61,13.61,0,0,1,8.3,11.049c.834,5.729.477,11.48.537,17.225.064,5.981-.014,11.964.033,17.947.008,1.013-.234,1.357-1.279,1.32q-3.216-.114-6.438,0c-1.034.035-1.306-.291-1.3-1.313.038-8.813.013-17.628.025-26.44a21.387,21.387,0,0,0-.938-7.279c-1.262-3.57-3.955-5.389-7.483-5.992-4.206-.719-8.474-.2-12.713-.3-2.245-.057-2.245-.011-2.245,2.221,0,12.561-.015,25.119.027,37.679,0,1.14-.289,1.483-1.435,1.432-2.1-.1-4.2-.083-6.3,0-1.055.04-1.291-.32-1.287-1.325C22.446,261.035,22.429,253.135,22.429,245.234Z" fill="#415225" fill-rule="evenodd"/>
      <path id="Path_221" data-name="Path 221" d="M220.83,245.234c0-7.763.034-15.526-.035-23.289-.012-1.316.4-1.564,1.609-1.551,6.667.074,13.336,0,20,.109a27.676,27.676,0,0,1,10.528,2.064,13.6,13.6,0,0,1,8.672,11.36,66.346,66.346,0,0,1,.56,8.874c-.007,8.678-.027,17.354.021,26.031.006,1.15-.32,1.477-1.45,1.428-2.1-.088-4.2-.08-6.3,0-1.053.039-1.286-.32-1.285-1.328q.037-14.59-.028-29.18a11.968,11.968,0,0,0-1.763-6.367c-1.875-2.993-4.864-4.242-8.225-4.391-4.1-.18-8.218-.024-12.327-.093-1.24-.021-.991.749-.991,1.44,0,12.787-.024,25.574.03,38.361.005,1.291-.361,1.62-1.594,1.561-2.05-.1-4.111-.082-6.162,0-1.051.041-1.291-.314-1.286-1.324C220.847,261.036,220.83,253.136,220.83,245.234Z" fill="#415225" fill-rule="evenodd"/>
      <path id="Path_222" data-name="Path 222" d="M143.192,258.225a49.847,49.847,0,0,0,4.12-8.1c3.8-9.148,5.963-18.742,7.615-28.466.182-1.069.584-1.321,1.58-1.294,2.372.064,4.747.019,7.122.023.486,0,.969-.145.791.754-2.224,11.217-4.313,22.472-8.868,33.052a52.8,52.8,0,0,1-11.625,16.407c-.738.736-1.111.507-1.735-.1A55.7,55.7,0,0,1,127.307,245.1c-2.191-7.719-3.89-15.543-5.456-23.4-.194-.975-.066-1.381,1.079-1.335,2.325.094,4.657.06,6.984.011.853-.018,1.151.236,1.3,1.116a141.133,141.133,0,0,0,6.226,24.983,68.371,68.371,0,0,0,5.057,11.016C142.65,257.755,142.738,258.092,143.192,258.225Z" fill="#415225" fill-rule="evenodd"/>
      <path id="Path_223" data-name="Path 223" d="M267.25,228.929,285.221,210.9c0,2.7.076,5.319-.032,7.933-.054,1.322.41,1.613,1.639,1.591,3.741-.07,7.486.015,11.228-.052,1.056-.019,1.323.311,1.286,1.314-.073,1.959-.076,3.926,0,5.885.041,1.055-.226,1.412-1.35,1.389-3.788-.076-7.578,0-11.366-.047-1-.012-1.446.162-1.436,1.326.058,6.664.028,13.329.027,19.994a16.221,16.221,0,0,0,.371,3.8c1.123,4.672,3.3,6.121,8.764,7.258a16.91,16.91,0,0,0,4.085.275c.656-.025.893.229.888.867-.018,2.328-.01,4.656,0,6.984,0,.448-.035.83-.634.816-5.61-.137-11.14-.688-15.973-3.9-4.014-2.669-5.8-6.716-6.294-11.325-.736-6.867-.172-13.77-.32-20.656-.029-1.368-.061-2.741.017-4.107.058-1.006-.247-1.366-1.3-1.338C272.325,228.975,269.823,228.929,267.25,228.929Z" fill="#415225" fill-rule="evenodd"/>
    </g>
    <g id="Group_65" data-name="Group 65">
      <path id="Path_224" data-name="Path 224" d="M230.583,150.1a45.418,45.418,0,0,1-2.842,15.852c-4.057-11.435-12.758-27.426-30.194-31.2V106.229A45.74,45.74,0,0,1,230.583,150.1Z" fill="#83b240"/>
      <path id="Path_225" data-name="Path 225" d="M186.548,104.479v43.31c-9.516-20.107-22.291-30.032-29.07-34.162a45.425,45.425,0,0,1,27.439-9.189C185.464,104.438,186.005,104.46,186.548,104.479Z" fill="#83b240"/>
      <path id="Path_226" data-name="Path 226" d="M139.25,150.1a45.4,45.4,0,0,1,6.578-23.59v47.179A45.4,45.4,0,0,1,139.25,150.1Z" fill="#83b240"/>
      <path id="Path_227" data-name="Path 227" d="M156.828,186.074v-59.53c9.865,7.837,25.584,25.883,29.72,63.046v6.143c-.543.019-1.084.041-1.631.041A45.434,45.434,0,0,1,156.828,186.074Z" fill="#83b240"/>
      <path id="Path_228" data-name="Path 228" d="M197.548,193.982V146.175c16.906,5.785,21.9,30.133,22.455,33.123A45.77,45.77,0,0,1,197.548,193.982Z" fill="#83b240"/>
    </g>
  </g>
</svg>
